Coordinates
version=1
nRows=30
nColumns=38
inDegrees=no

Units are S.I. units (second, meters, Newtons, ...)
If the header above contains a line with 'inDegrees', this indicates whether rotational values are in degrees (yes) or radians (no).

endheader
time	pelvis_tilt	pelvis_list	pelvis_rotation	pelvis_tx	pelvis_ty	pelvis_tz	hip_flexion_r	hip_adduction_r	hip_rotation_r	knee_angle_r	ankle_angle_r	subtalar_angle_r	mtp_angle_r	hip_flexion_l	hip_adduction_l	hip_rotation_l	knee_angle_l	ankle_angle_l	subtalar_angle_l	mtp_angle_l	lumbar_extension	lumbar_bending	lumbar_rotation	arm_flex_r	arm_add_r	arm_rot_r	elbow_flex_r	pro_sup_r	wrist_flex_r	wrist_dev_r	arm_flex_l	arm_add_l	arm_rot_l	elbow_flex_l	pro_sup_l	wrist_flex_l	wrist_dev_l
1.55	-0.33393	1.36616	-1.16986	0.799341	0.147949	0.958517	0.163309	-0.0626921	-0.061455	1.24632	-0.308831	0	0	-0.150813	-0.0538633	-0.310566	0.328324	-0.18418	0	0	-0.331948	0.0512093	-0.167999	0.156012	-0.491654	1.24702	0.606397	0.266777	0	0	-0.174319	-0.422053	0.0228527	0.923322	1.5708	0	0
1.56	-0.354485	1.36516	-1.14557	0.799446	0.138981	0.958949	0.186085	-0.0608411	-0.0638097	1.23493	-0.295082	0	0	-0.162864	-0.059937	-0.310035	0.324146	-0.179909	0	0	-0.331118	0.0576586	-0.170494	0.158708	-0.491197	1.25098	0.602573	0.264625	0	0	-0.164758	-0.423934	0.0185336	0.931627	1.5708	0	0
1.57	-0.371497	1.36334	-1.12428	0.799556	0.130004	0.959286	0.206053	-0.0590397	-0.0666297	1.21961	-0.280213	0	0	-0.176172	-0.065862	-0.309118	0.319413	-0.175637	0	0	-0.331283	0.0637494	-0.173809	0.161398	-0.49091	1.25476	0.599568	0.262633	0	0	-0.156387	-0.425818	0.0128814	0.941433	1.5708	0	0
1.58	-0.385771	1.36131	-1.10576	0.799639	0.12108	0.959493	0.2236	-0.0573245	-0.0692122	1.199	-0.264376	0	0	-0.189719	-0.0714809	-0.30855	0.314853	-0.171241	0	0	-0.331993	0.0693463	-0.177447	0.164275	-0.491034	1.25839	0.597624	0.260767	0	0	-0.148946	-0.427458	0.00592757	0.952489	1.5708	0	0
1.59	-0.396415	1.35906	-1.09081	0.79976	0.112225	0.959619	0.238532	-0.0561056	-0.071415	1.17272	-0.245291	0	0	-0.203923	-0.0765411	-0.307938	0.309644	-0.166709	0	0	-0.33346	0.0744107	-0.181468	0.167737	-0.491384	1.2631	0.596154	0.258718	0	0	-0.141952	-0.428097	-0.00299612	0.964289	1.5708	0	0
1.6	-0.40528	1.35689	-1.07744	0.799916	0.103391	0.959627	0.251047	-0.055031	-0.0727142	1.14097	-0.230236	0	0	-0.218207	-0.0812718	-0.306715	0.304278	-0.162749	0	0	-0.33524	0.0791754	-0.185432	0.171084	-0.491968	1.26782	0.595014	0.256865	0	0	-0.134839	-0.429012	-0.0106863	0.976027	1.5708	0	0
1.61	-0.411476	1.35459	-1.06664	0.800042	0.0946214	0.959536	0.260575	-0.0538452	-0.0732049	1.1032	-0.218944	0	0	-0.23266	-0.0857775	-0.306119	0.299293	-0.158905	0	0	-0.337744	0.083344	-0.18938	0.174495	-0.492341	1.27237	0.593813	0.254996	0	0	-0.127939	-0.430831	-0.0168941	0.988016	1.5708	0	0
1.62	-0.415241	1.35275	-1.05839	0.800069	0.0858851	0.95935	0.267834	-0.0524395	-0.0729409	1.05842	-0.212826	0	0	-0.246903	-0.089858	-0.306299	0.294277	-0.155686	0	0	-0.340325	0.0867052	-0.193055	0.177556	-0.492401	1.27608	0.592536	0.253201	0	0	-0.120515	-0.432588	-0.0224327	0.999799	1.5708	0	0
1.63	-0.416675	1.35093	-1.0527	0.799992	0.0771732	0.959116	0.27208	-0.0505401	-0.0718763	1.00599	-0.212263	0	0	-0.260951	-0.0935869	-0.306905	0.289928	-0.152584	0	0	-0.343361	0.0894259	-0.196388	0.180391	-0.491943	1.27947	0.590735	0.251476	0	0	-0.112664	-0.433995	-0.0278898	1.01129	1.5708	0	0
1.64	-0.415093	1.34895	-1.05033	0.799881	0.0684346	0.958845	0.272234	-0.0486084	-0.0710023	0.945071	-0.219811	0	0	-0.275767	-0.0967023	-0.307801	0.284889	-0.149511	0	0	-0.346919	0.0915497	-0.199546	0.183435	-0.491122	1.28385	0.588366	0.249508	0	0	-0.105027	-0.435146	-0.0331259	1.02236	1.5708	0	0
1.65	-0.412291	1.34755	-1.04899	0.79976	0.0595859	0.958441	0.268335	-0.0475519	-0.0753074	0.87645	-0.229948	0	0	-0.289821	-0.0994471	-0.308998	0.280415	-0.147195	0	0	-0.349945	0.0932156	-0.202379	0.185632	-0.490406	1.28755	0.586082	0.247722	0	0	-0.0967999	-0.436718	-0.035798	1.03223	1.5708	0	0
1.66	-0.391475	1.33645	-1.05882	0.800565	0.0503203	0.958839	0.262461	-0.0525808	-0.194088	0.818154	-0.259813	0	0	-0.315837	-0.104783	-0.307787	0.273054	-0.148005	0	0	-0.362862	0.0987987	-0.210913	0.188118	-0.492747	1.29073	0.58859	0.246067	0	0	-0.0889092	-0.438439	-0.0373266	1.04258	1.5708	0	0
1.67	-0.386113	1.33693	-1.06056	0.800158	0.0413026	0.957982	0.252932	-0.0506899	-0.199579	0.736505	-0.27215	0	0	-0.327964	-0.10648	-0.307893	0.270022	-0.145407	0	0	-0.36429	0.0987066	-0.212472	0.188485	-0.492751	1.29224	0.588299	0.244422	0	0	-0.0800872	-0.440623	-0.0366802	1.05038	1.5708	0	0
1.68	-0.381919	1.34017	-1.06261	0.799504	0.0321855	0.956762	0.24317	-0.0483534	-0.192841	0.650108	-0.280255	0	0	-0.337315	-0.106804	-0.308213	0.267762	-0.141572	0	0	-0.362804	0.0967676	-0.212768	0.187844	-0.491805	1.29288	0.586701	0.243126	0	0	-0.0714526	-0.442895	-0.0346999	1.05683	1.5708	0	0
1.69	-0.375793	1.34539	-1.0673	0.798705	0.022835	0.95521	0.232557	-0.0475343	-0.183084	0.561371	-0.284863	0	0	-0.345177	-0.105609	-0.309283	0.266173	-0.137012	0	0	-0.359107	0.0930375	-0.212634	0.186008	-0.490669	1.29275	0.585146	0.24235	0	0	-0.0637015	-0.445465	-0.0315561	1.06244	1.5708	0	0
1.7	-0.366111	1.35186	-1.07617	0.797748	0.0132743	0.953358	0.220599	-0.0483651	-0.169712	0.471204	-0.288193	0	0	-0.352459	-0.102977	-0.311015	0.265249	-0.13129	0	0	-0.354106	0.0876059	-0.212174	0.183249	-0.489541	1.29205	0.584133	0.242058	0	0	-0.0567553	-0.448127	-0.0282336	1.06766	1.5708	0	0
1.71	-0.351067	1.35733	-1.08977	0.796638	0.00348314	0.951459	0.204121	-0.0489674	-0.167203	0.366901	-0.307829	0	0	-0.361077	-0.10052	-0.312556	0.264999	-0.124842	0	0	-0.350066	0.0814503	-0.212306	0.179929	-0.488224	1.29077	0.583879	0.242377	0	0	-0.0503405	-0.451163	-0.0250168	1.07274	1.5708	0	0
1.72	-0.331634	1.36683	-1.10942	0.795427	-0.00638481	0.94906	0.200328	-0.0551568	-0.154708	0.308556	-0.294044	0	0	-0.365879	-0.094747	-0.313558	0.265656	-0.119439	0	0	-0.342358	0.0723626	-0.211554	0.17614	-0.487627	1.28939	0.585054	0.242706	0	0	-0.0445115	-0.453682	-0.0218964	1.07669	1.5708	0	0
1.73	-0.311939	1.37568	-1.12943	0.793935	-0.0164517	0.946686	0.189685	-0.05883	-0.142828	0.227101	-0.294094	0	0	-0.370977	-0.0901743	-0.314903	0.266747	-0.11314	0	0	-0.334836	0.0633015	-0.210496	0.172044	-0.485703	1.28753	0.585007	0.243039	0	0	-0.0391177	-0.457584	-0.0170405	1.07997	1.5708	0	0
1.74	-0.291481	1.38422	-1.15056	0.792283	-0.0266005	0.944319	0.179174	-0.0622336	-0.131701	0.150176	-0.304035	0	0	-0.375836	-0.0860868	-0.316258	0.268353	-0.107591	0	0	-0.327502	0.0543527	-0.209153	0.168238	-0.48326	1.28579	0.584572	0.2433	0	0	-0.0340456	-0.462599	-0.0103983	1.08256	1.56957	0	0
1.75	-0.273004	1.39248	-1.17012	0.790449	-0.0367729	0.941978	0.168356	-0.0652036	-0.118865	0.0768742	-0.318054	0	0	-0.379898	-0.08296	-0.317258	0.270993	-0.102849	0	0	-0.320297	0.04595	-0.207234	0.164925	-0.479928	1.28482	0.58291	0.243711	0	0	-0.0287197	-0.468285	-0.00246468	1.08419	1.56649	0	0
1.76	-0.262587	1.40191	-1.18254	0.788215	-0.0469975	0.939513	0.154143	-0.0688919	-0.0858143	0	-0.338307	0	0	-0.381168	-0.081441	-0.318096	0.275492	-0.0977064	0	0	-0.311304	0.0379764	-0.20416	0.161573	-0.474842	1.28434	0.579029	0.244135	0	0	-0.0234999	-0.474472	0.00594984	1.08483	1.56326	0	0
1.77	-0.250495	1.40687	-1.19462	0.786754	-0.0571057	0.937659	0.156875	-0.0690363	-0.104715	0	-0.332675	0	0	-0.386527	-0.0808773	-0.317115	0.278907	-0.0952865	0	0	-0.307451	0.0336165	-0.202685	0.160179	-0.472068	1.2846	0.576836	0.244144	0	0	-0.0170306	-0.478027	0.0133497	1.08359	1.56172	0	0
1.78	-0.244849	1.41	-1.19955	0.785337	-0.0672925	0.936101	0.157895	-0.0675047	-0.122907	0	-0.31874	0	0	-0.392614	-0.0824332	-0.315518	0.283487	-0.0935935	0	0	-0.305094	0.031478	-0.201656	0.159487	-0.469164	1.28536	0.574265	0.243971	0	0	-0.0108015	-0.480936	0.0201409	1.0813	1.56119	0	0
1.79	-0.245149	1.41144	-1.19831	0.783937	-0.0775297	0.934857	0.157601	-0.0644096	-0.139145	0	-0.3085	0	0	-0.399441	-0.0857548	-0.314231	0.289274	-0.092712	0	0	-0.30432	0.0313425	-0.200931	0.159838	-0.46622	1.28683	0.571446	0.243499	0	0	-0.00525625	-0.482849	0.0252335	1.07833	1.56122	0	0
1.8	-0.252103	1.41129	-1.19041	0.782482	-0.0878643	0.933903	0.155399	-0.0594223	-0.149824	0	-0.306288	0	0	-0.407216	-0.0908698	-0.31283	0.29545	-0.0932936	0	0	-0.304877	0.0331221	-0.200442	0.161033	-0.463135	1.28874	0.568417	0.242695	0	0	-0.000971594	-0.483887	0.0282065	1.07495	1.56209	0	0
1.81	-0.26499	1.4109	-1.17685	0.780909	-0.0983904	0.933093	0.152414	-0.0531201	-0.150755	0	-0.308571	0	0	-0.414981	-0.0970341	-0.310848	0.30109	-0.0944644	0	0	-0.305288	0.0360706	-0.199914	0.162017	-0.46056	1.28967	0.566569	0.242561	0	0	0.00161682	-0.484036	0.0290912	1.07164	1.56248	0	0
1.82	-0.281769	1.40906	-1.1588	0.779324	-0.109109	0.932546	0.147412	-0.0451008	-0.146592	0	-0.314627	0	0	-0.423642	-0.104834	-0.308625	0.307215	-0.0967865	0	0	-0.306756	0.0405517	-0.200071	0.163267	-0.45745	1.29087	0.563951	0.242382	0	0	0.00290676	-0.483753	0.028735	1.06831	1.56282	0	0
1.83	-0.299074	1.40617	-1.13984	0.77774	-0.120068	0.932231	0.140492	-0.0359592	-0.138436	0	-0.323033	0	0	-0.433068	-0.113292	-0.306554	0.313455	-0.100572	0	0	-0.308876	0.0458528	-0.201166	0.16465	-0.454058	1.29233	0.56116	0.242273	0	0	0.00201572	-0.483226	0.0266521	1.06546	1.56323	0	0
1.84	-0.314994	1.40138	-1.12191	0.776179	-0.131224	0.932216	0.13064	-0.0257237	-0.12885	0	-0.336482	0	0	-0.443885	-0.122518	-0.305157	0.320541	-0.108573	0	0	-0.312377	0.0521633	-0.204006	0.167188	-0.449993	1.29564	0.557434	0.242379	0	0	-0.00185426	-0.481896	0.0209286	1.06341	1.56375	0	0
